<?xml version="1.0" encoding="UTF-8"?>
<svg id="Layer_1" data-name="Layer 1" xmlns="http://www.w3.org/2000/svg" viewBox="0 0 770.29 500.5">
  <polygon points="157.64 318.78 1 318.78 1 268 42.8 268 42.8 78.74 1 78.74 1 27.96 157.64 27.96 157.64 78.74 115.84 78.74 115.84 268 157.64 268 157.64 318.78" fill="none" stroke="#000" stroke-miterlimit="10" stroke-width="2"/>
  <path d="M.79,28L30.79,3H182.79c-8.33,8.33-16.67,16.67-25,25" fill="none" stroke="#000" stroke-miterlimit="10" stroke-width="2"/>
  <path d="M157.79,79l26.38-25.26c-.46-16.91-.92-33.83-1.38-50.74" fill="none" stroke="#000" stroke-miterlimit="10" stroke-width="2"/>
  <polyline points="115.79 268 145.79 243 187.79 243 157.79 268" fill="none" stroke="#000" stroke-miterlimit="10" stroke-width="2"/>
  <polyline points="157.79 319 187.79 294 187.79 243" fill="none" stroke="#000" stroke-miterlimit="10" stroke-width="2"/>
  <polyline points=".79 268 30.79 243 42.79 243" fill="none" stroke="#000" stroke-miterlimit="10" stroke-width="2"/>
  <line x1="145.79" y1="243" x2="145.79" y2="79" fill="none" stroke="#000" stroke-miterlimit="10" stroke-width="2"/>
</svg>