<?xml version="1.0" encoding="UTF-8"?>
<svg id="Layer_1" data-name="Layer 1" xmlns="http://www.w3.org/2000/svg" viewBox="0 0 690.29 497.02">
  <polygon points="157.64 316.82 1 316.82 1 266.04 42.8 266.04 42.8 76.78 1 76.78 1 26 157.64 26 157.64 76.78 115.84 76.78 115.84 266.04 157.64 266.04 157.64 316.82" fill="none" stroke="#000" stroke-miterlimit="10" stroke-width="2"/>
  <polygon points="187.64 291.82 31 291.82 31 241.04 72.8 241.04 72.8 51.78 31 51.78 31 1 187.64 1 187.64 51.78 145.84 51.78 145.84 241.04 187.64 241.04 187.64 291.82" fill="none" stroke="#000" stroke-miterlimit="10" stroke-width="2"/>
  <line x1=".79" y1="26.04" x2="30.79" y2="1.04" fill="none" stroke="#000" stroke-miterlimit="10" stroke-width="2"/>
  <line x1="157.79" y1="26.04" x2="187.79" y2="1.04" fill="none" stroke="#000" stroke-miterlimit="10" stroke-width="2"/>
  <line x1=".79" y1="77.04" x2="30.79" y2="52.04" fill="none" stroke="#000" stroke-miterlimit="10" stroke-width="2"/>
  <line x1="42.79" y1="77.04" x2="70.79" y2="52.04" fill="none" stroke="#000" stroke-miterlimit="10" stroke-width="2"/>
  <line x1="115.79" y1="77.04" x2="145.79" y2="52.04" fill="none" stroke="#000" stroke-miterlimit="10" stroke-width="2"/>
  <line x1="115.79" y1="266.04" x2="145.79" y2="241.04" fill="none" stroke="#000" stroke-miterlimit="10" stroke-width="2"/>
  <line x1="157.79" y1="266.04" x2="187.79" y2="241.04" fill="none" stroke="#000" stroke-miterlimit="10" stroke-width="2"/>
  <line x1="157.79" y1="317.04" x2="187.79" y2="292.04" fill="none" stroke="#000" stroke-miterlimit="10" stroke-width="2"/>
  <line x1=".79" y1="317.04" x2="30.79" y2="292.04" fill="none" stroke="#000" stroke-miterlimit="10" stroke-width="2"/>
  <line x1=".79" y1="266.04" x2="30.79" y2="241.04" fill="none" stroke="#000" stroke-miterlimit="10" stroke-width="2"/>
  <line x1="42.79" y1="266.04" x2="70.79" y2="241.04" fill="none" stroke="#000" stroke-miterlimit="10" stroke-width="2"/>
  <line x1="157.79" y1="77.04" x2="187.79" y2="52.04" fill="none" stroke="#000" stroke-miterlimit="10" stroke-width="2"/>
</svg>