<?xml version="1.0" encoding="UTF-8"?>
<svg id="Layer_1" data-name="Layer 1" xmlns="http://www.w3.org/2000/svg" viewBox="0 0 431.59 320.64">
  <defs>
    <style>
      .cls-1 {
        fill: none;
        stroke-width: 2px;
      }

      .cls-1, .cls-2 {
        stroke: #000;
        stroke-miterlimit: 10;
      }

      .cls-2 {
        fill: #fff;
      }
    </style>
  </defs>
  <path class="cls-1" d="M1,317.6V26.78H197.68v55.47H73.66v50.98h114.26v55.47H73.66v73.44h124.02v55.47H1Z"/>
  <path class="cls-1" d="M31,292.6V1.78H227.68V57.25H103.66v50.98h114.26v55.47H103.66v73.44h124.02v55.47H31Z"/>
  <polyline class="cls-1" points="198.09 82.14 228.09 57.14 104.09 57.14 104.09 108.14 215.1 108.22 188.09 133.14 188.09 189.14 218.09 164.14 104.09 164.14 104.09 237.14 228.09 237.14 198.09 262.14 198.09 317.14 228.09 292.14 31.09 292.14 31.09 2.14 1.09 27.14 3.41 25.2 31.09 2.14 228.09 2.14 198.09 27.14"/>
  <line class="cls-2" x1="73.66" y1="129.46" x2="103.59" y2="107.64"/>
  <line class="cls-2" x1="73.59" y1="82.64" x2="103.59" y2="56.64"/>
  <line class="cls-2" x1="73.59" y1="188.64" x2="103.59" y2="163.64"/>
</svg>